<svg width="50" height="72" viewBox="0 0 50 72" fill="none" xmlns="http://www.w3.org/2000/svg">
<g opacity="0.9">
<path d="M24.9987 72C11.1971 72 0 68.4795 0 64.1425V56.285C0 55.6029 0.362995 54.9526 0.884153 54.3219C3.67144 57.7054 13.3634 60.2138 25 60.2138C36.6366 60.2138 46.3286 57.7054 49.1158 54.3219C49.637 54.9551 49.9974 55.6029 49.9974 56.285V64.1425C49.9974 68.4771 38.8003 72 24.9987 72ZM50 40.57C50 42.8461 50 45.2567 50 48.4275C50 52.7621 38.8016 56.285 25 56.285C11.1984 56.285 0 52.7621 0 48.4275V40.57C0.0342257 39.7928 0.465466 39.1383 0.884153 38.6044C3.67144 41.9856 13.3634 44.4963 25 44.4963C36.6366 44.4963 46.3286 41.9856 49.1158 38.6044C49.6064 39.2426 49.9823 39.8951 50 40.57ZM24.9974 40.5725C11.1958 40.5725 0 37.052 0 32.715C0 31.473 0 26.2412 0 24.8575C0 20.5205 11.1958 17 24.9974 17C38.799 17 49.9948 20.5205 49.9948 24.8575C49.9948 26.0823 49.9948 31.2579 49.9948 32.715C49.9948 37.052 38.799 40.5725 24.9974 40.5725ZM41.6615 24.86C41.6615 21.8468 27.7309 19.9534 16.6466 21.46C5.5623 22.9665 5.5623 26.7534 16.6466 28.26C27.7309 29.7665 41.6615 27.8731 41.6615 24.86Z" fill="black"/>
<path d="M8.3887 3C7.47526 3 6.81056 3.55929 6.46421 4.10893C6.13769 4.62675 6 5.21342 6 5.80511V24.4174C6 25.7627 6.32632 27.0144 6.96516 28.0282C7.33322 28.6124 7.84113 29.0974 8.44373 29.4399V50.0089C8.44373 50.8222 8.64209 51.5958 9.05457 52.2505C9.48046 52.9261 10.2657 53.5895 11.3211 53.5895C12.3765 53.5895 13.156 52.9261 13.5817 52.2505C13.9943 51.5958 14.1987 50.8222 14.1987 50.0089V29.4338C14.7982 29.0921 15.3038 28.6094 15.6709 28.0282C16.3099 27.0144 16.6425 25.7627 16.6425 24.4174V5.80511C16.6425 5.21342 16.4986 4.62675 16.1718 4.10874C15.8257 3.55929 15.167 3 14.2536 3C13.6429 3 13.1542 3.25708 12.7873 3.58783C12.4205 3.25612 11.9333 3 11.3211 3C10.7105 3 10.2216 3.25708 9.85482 3.58783C9.48804 3.25612 9.0007 3 8.3885 3H8.3887Z" fill="black" fill-opacity="0.2"/>
<path d="M7.40871 3.36353C7.07247 3.36353 6.79671 3.57837 6.62674 3.84818C6.45658 4.11818 6.36401 4.46281 6.36401 4.83579V23.4479C6.36401 24.5703 6.64794 25.5888 7.1277 26.35C7.54348 27.0099 8.13312 27.4645 8.80774 27.5798V49.0394C8.80774 49.6267 8.95846 50.162 9.2171 50.5723C9.47575 50.9827 9.87014 51.2872 10.3412 51.2872C10.8122 51.2872 11.2066 50.9825 11.4652 50.5723C11.7238 50.162 11.8746 49.6267 11.8746 49.0394V27.5798C12.5492 27.4645 13.1386 27.0099 13.5548 26.35C14.0344 25.5888 14.3183 24.5705 14.3183 23.4479V4.83579C14.3183 4.46281 14.2257 4.11837 14.0558 3.84837C13.8854 3.57837 13.6096 3.36353 13.2736 3.36353C12.9375 3.36353 12.6618 3.57837 12.4916 3.84818C12.3215 4.11818 12.2291 4.46281 12.2291 4.83579V23.4479C12.2291 23.7173 12.1591 23.9572 12.064 24.1082C11.9687 24.2594 11.8761 24.3022 11.8073 24.3022C11.7386 24.3022 11.6459 24.2594 11.5508 24.1082C11.4555 23.9572 11.3859 23.7173 11.3859 23.4479V4.83579C11.3859 4.46281 11.2933 4.11837 11.1231 3.84837C10.953 3.57837 10.6772 3.36353 10.3412 3.36353C10.0051 3.36353 9.72934 3.57837 9.55918 3.84818C9.38902 4.11818 9.29645 4.46281 9.29645 4.83579V23.4479C9.29645 23.7173 9.22664 23.9572 9.13154 24.1082C9.03625 24.2594 8.94368 24.3022 8.87484 24.3022C8.80619 24.3022 8.71342 24.2594 8.61813 24.1082C8.52304 23.9572 8.45341 23.7173 8.45341 23.4479V4.83579C8.45341 4.46281 8.36085 4.11837 8.19068 3.84837C8.02052 3.57837 7.74476 3.36353 7.40871 3.36353Z" fill="#333333" stroke="#2D2D2D" stroke-width="5.23299"/>
<path d="M7.40866 3.73926C7.2376 3.73926 7.06635 3.85481 6.94435 4.04829C6.81591 4.25186 6.7428 4.52503 6.7428 4.83582V23.4479C6.7428 24.508 7.01004 25.4653 7.44522 26.1561C7.87923 26.8444 8.47335 27.2589 9.11927 27.2589H9.18653V49.0394C9.18653 49.5635 9.31341 50.0307 9.52865 50.3723C9.74057 50.7087 10.0305 50.9115 10.3411 50.9115C10.652 50.9115 10.9417 50.7087 11.1536 50.3725C11.3689 50.0307 11.4958 49.5635 11.4958 49.0394V27.2587H11.563C12.2089 27.2587 12.8032 26.8444 13.2369 26.1561C13.6722 25.4653 13.9395 24.508 13.9395 23.4479V4.83582C13.9395 4.52503 13.8664 4.25206 13.7379 4.04829C13.6159 3.85481 13.4447 3.73926 13.2736 3.73926C13.1026 3.73926 12.9313 3.85481 12.8093 4.04829C12.6809 4.25186 12.6078 4.52503 12.6078 4.83582V23.4479C12.6078 23.7811 12.5233 24.0834 12.3816 24.3083C12.2435 24.5274 12.0385 24.6778 11.8074 24.6778C11.5763 24.6778 11.3712 24.5274 11.233 24.3083C11.0915 24.0834 11.007 23.7811 11.007 23.4479V4.83582C11.007 4.52503 10.9339 4.25206 10.8054 4.04829C10.6835 3.85481 10.5122 3.73926 10.3411 3.73926C10.1701 3.73926 9.99882 3.85481 9.87683 4.04829C9.74839 4.25186 9.67527 4.52503 9.67527 4.83582V23.4479C9.67527 23.7811 9.59082 24.0834 9.44908 24.3083C9.31106 24.5274 9.10598 24.6778 8.8749 24.6778C8.64382 24.6778 8.43875 24.5274 8.30053 24.3083C8.15899 24.0834 8.07453 23.7811 8.07453 23.4479V4.83582C8.07453 4.52503 8.00141 4.25206 7.87297 4.04829C7.75098 3.85481 7.57972 3.73926 7.40866 3.73926ZM7.40866 4.22395C7.37543 4.22395 7.38911 4.19409 7.45754 4.30266C7.51951 4.40115 7.58579 4.60782 7.58579 4.83582V23.4479C7.58579 23.8608 7.68666 24.2476 7.8851 24.5626C8.08744 24.8835 8.43386 25.1625 8.8749 25.1625C9.31595 25.1625 9.66237 24.8833 9.86452 24.5626C10.0631 24.2476 10.164 23.8608 10.164 23.4479V4.83582C10.164 4.60782 10.2303 4.40115 10.2923 4.30266C10.3607 4.19409 10.3744 4.22395 10.3411 4.22395C10.3079 4.22395 10.3216 4.19409 10.39 4.30266C10.452 4.40115 10.5183 4.60782 10.5183 4.83582V23.4479C10.5183 23.8608 10.6191 24.2476 10.8176 24.5626C11.0199 24.8835 11.3663 25.1625 11.8074 25.1625C12.2484 25.1625 12.5948 24.8833 12.797 24.5626C12.9956 24.2476 13.0965 23.8608 13.0965 23.4479V4.83582C13.0965 4.60782 13.1628 4.40115 13.2247 4.30266C13.2932 4.19409 13.3069 4.22395 13.2736 4.22395C13.2404 4.22395 13.2541 4.19409 13.3225 4.30266C13.3845 4.40115 13.4507 4.60782 13.4507 4.83582V23.4479C13.4507 24.4258 13.1958 25.3079 12.8214 25.9017C12.4457 26.4979 11.9994 26.7742 11.563 26.7742H11.007V49.0394C11.007 49.4826 10.8903 49.8766 10.7382 50.1179C10.5828 50.3645 10.4379 50.427 10.3411 50.427C10.2444 50.427 10.0995 50.3645 9.94408 50.1179C9.79199 49.8766 9.67527 49.4826 9.67527 49.0394V26.774H9.11908C8.68273 26.774 8.2364 26.4979 7.86046 25.9015C7.48628 25.3079 7.23135 24.4258 7.23135 23.4479V4.83582C7.23135 4.60782 7.29762 4.40115 7.3596 4.30266C7.42802 4.19409 7.4419 4.22395 7.40866 4.22395Z" fill="url(#paint0_linear_18_70)" stroke="url(#paint1_linear_18_70)" stroke-width="1.42714"/>
<path d="M7.40868 3.98163C7.47749 3.98163 7.56996 4.02428 7.66517 4.1755C7.76057 4.32673 7.83017 4.56636 7.83017 4.83584V23.4479C7.83017 23.8209 7.92284 24.1656 8.09292 24.4355C8.263 24.7054 8.53866 24.9202 8.87491 24.9202C9.21117 24.9202 9.48682 24.7054 9.65691 24.4355C9.82699 24.1656 9.91966 23.8209 9.91966 23.4479V4.83584C9.91966 4.56636 9.98926 4.32653 10.0845 4.1755C10.1799 4.02428 10.2723 3.98163 10.3412 3.98163C10.41 3.98163 10.5024 4.02428 10.5976 4.1755C10.6931 4.32673 10.7626 4.56636 10.7626 4.83584V23.4479C10.7626 23.8209 10.8553 24.1656 11.0254 24.4355C11.1955 24.7054 11.4711 24.9202 11.8074 24.9202C12.1436 24.9202 12.4193 24.7054 12.5894 24.4355C12.7595 24.1656 12.8521 23.8209 12.8521 23.4479V4.83584C12.8521 4.56636 12.9217 4.32653 13.0169 4.1755C13.1123 4.02428 13.2048 3.98163 13.2736 3.98163C13.3424 3.98163 13.4349 4.02428 13.5301 4.1755C13.6255 4.32673 13.6951 4.56636 13.6951 4.83584V23.4479C13.6951 24.4669 13.4339 25.3866 13.0293 26.0289C12.6246 26.6713 12.1042 27.0165 11.563 27.0165H11.2514V49.0394C11.2514 49.5232 11.1296 49.9538 10.946 50.2451C10.7623 50.5365 10.5449 50.6693 10.3412 50.6693C10.1374 50.6693 9.92005 50.5365 9.73628 50.2451C9.55251 49.9538 9.43091 49.5232 9.43091 49.0394V27.0164H9.11929C8.57815 27.0164 8.05773 26.6713 7.65305 26.0289C7.24837 25.3866 6.98718 24.4669 6.98718 23.4479V4.83584C6.98718 4.56636 7.05678 4.32653 7.15199 4.1755C7.24739 4.02428 7.33986 3.98163 7.40868 3.98163Z" fill="url(#paint2_linear_18_70)"/>
<path d="M41.4462 3.00222C41.2252 2.99366 41.0039 3.0099 40.7865 3.05062C40.3431 3.1349 39.9349 3.31599 39.5647 3.55977C38.8321 4.04133 38.2514 4.7551 37.738 5.68621C35.6828 9.41298 34.3454 17.1043 35.3308 33.1317V33.1377L35.3491 33.4285L35.4286 34.6767H38.7522V50.0958C38.7522 50.9093 38.9505 51.6828 39.363 52.3376C39.7889 53.013 40.5742 53.6766 41.6296 53.6766C42.685 53.6766 43.4644 53.0132 43.8901 52.3376C44.3028 51.6828 44.5072 50.9093 44.5072 50.0958V6.66766C44.5072 5.15817 43.7409 3.55032 42.106 3.09922C41.8907 3.04149 41.6693 3.00894 41.4464 3.00222H41.4462Z" fill="black" fill-opacity="0.2"/>
<path d="M40.0631 3.39003C39.8202 3.43612 39.5711 3.54046 39.33 3.69899C38.8477 4.01605 38.3811 4.55373 37.9372 5.35891C36.1607 8.5802 34.7159 16.1612 35.6949 32.0835L35.7132 32.3743H39.116V49.1265C39.116 49.7135 39.267 50.2489 39.5254 50.6593C39.7841 51.0695 40.1786 51.3742 40.6495 51.3742C41.1207 51.3742 41.5152 51.0695 41.7737 50.6593C42.0323 50.2491 42.1831 49.7135 42.1831 49.1265V5.69834C42.1831 4.62663 41.6506 3.65829 40.7658 3.41414C40.5366 3.35227 40.2961 3.34402 40.0631 3.39003Z" fill="#333333" stroke="#333333" stroke-width="5.23299"/>
<path d="M40.0629 3.38991C39.8201 3.43606 39.5709 3.54036 39.3298 3.69895C38.8477 4.01594 38.3811 4.55355 37.9369 5.35891C36.1606 8.58035 34.7159 16.1613 35.6947 32.0835L35.7131 32.3743H39.1159V49.1263C39.1159 49.7135 39.2669 50.2488 39.5253 50.6591C39.784 51.0695 40.1783 51.3741 40.6494 51.3741C41.1206 51.3741 41.5151 51.0695 41.7736 50.6591C42.0322 50.2488 42.1829 49.7135 42.1829 49.1263V5.69819C42.1829 4.62664 41.6504 3.65824 40.7656 3.41415C40.5364 3.35224 40.2959 3.34394 40.0629 3.38991Z" fill="url(#paint3_linear_18_70)"/>
<path d="M40.173 3.98978C40.313 3.96257 40.4575 3.96882 40.5945 4.008C41.1149 4.15147 41.5597 4.831 41.5597 5.69821V49.1263C41.5597 49.61 41.4379 50.0406 41.2543 50.332C41.0705 50.6234 40.8533 50.7562 40.6494 50.7562C40.4457 50.7562 40.2283 50.6234 40.0446 50.332C39.861 50.0406 39.7392 49.61 39.7392 49.1263V31.7562H36.3057C35.368 16.0946 36.8405 8.61312 38.4745 5.64974C38.8858 4.90409 39.3066 4.4481 39.6719 4.20788C39.8547 4.08768 40.0195 4.01924 40.173 3.98978Z" fill="url(#paint4_linear_18_70)"/>
</g>
<defs>
<linearGradient id="paint0_linear_18_70" x1="6.49843" y1="3.49691" x2="14.0599" y2="51.1735" gradientUnits="userSpaceOnUse">
<stop stop-color="white"/>
<stop offset="1" stop-color="#D3D3D3"/>
</linearGradient>
<linearGradient id="paint1_linear_18_70" x1="6.49843" y1="3.49691" x2="14.0599" y2="51.1735" gradientUnits="userSpaceOnUse">
<stop stop-color="white"/>
<stop offset="1" stop-color="#D3D3D3"/>
</linearGradient>
<linearGradient id="paint2_linear_18_70" x1="6.98718" y1="3.98163" x2="13.5864" y2="50.6845" gradientUnits="userSpaceOnUse">
<stop stop-color="#DDDDDD"/>
<stop offset="1" stop-color="#7F7F7F"/>
</linearGradient>
<linearGradient id="paint3_linear_18_70" x1="35.3782" y1="3.36083" x2="42.0726" y2="51.3895" gradientUnits="userSpaceOnUse">
<stop stop-color="white"/>
<stop offset="1" stop-color="#D3D3D3"/>
</linearGradient>
<linearGradient id="paint4_linear_18_70" x1="36.0128" y1="3.97291" x2="41.4692" y2="50.7666" gradientUnits="userSpaceOnUse">
<stop stop-color="#DDDDDD"/>
<stop offset="1" stop-color="#7F7F7F"/>
</linearGradient>
</defs>
</svg>
